<?xml version="1.0" encoding="UTF-8" standalone="no"?>
<!-- Creator: CorelDRAW 2021 (64-Bit) -->

<svg
   xml:space="preserve"
   width="64.8071mm"
   height="15.1606mm"
   version="1.1"
   style="shape-rendering:geometricPrecision; text-rendering:geometricPrecision; image-rendering:optimizeQuality; fill-rule:evenodd; clip-rule:evenodd"
   viewBox="0 0 6480.7 1516.06"
   id="svg12"
   sodipodi:docname="UDL_Logo_horizontal_white.svg"
   inkscape:version="1.3 (0e150ed6c4, 2023-07-21)"
   xmlns:inkscape="http://www.inkscape.org/namespaces/inkscape"
   xmlns:sodipodi="http://sodipodi.sourceforge.net/DTD/sodipodi-0.dtd"
   xmlns="http://www.w3.org/2000/svg"
   xmlns:svg="http://www.w3.org/2000/svg"><sodipodi:namedview
   id="namedview12"
   pagecolor="#ffffff"
   bordercolor="#000000"
   borderopacity="0.25"
   inkscape:showpageshadow="2"
   inkscape:pageopacity="0.0"
   inkscape:pagecheckerboard="0"
   inkscape:deskcolor="#d1d1d1"
   inkscape:document-units="mm"
   showguides="true"
   inkscape:zoom="2.0351905"
   inkscape:cx="72.474788"
   inkscape:cy="6.3876084"
   inkscape:window-width="1920"
   inkscape:window-height="1052"
   inkscape:window-x="0"
   inkscape:window-y="0"
   inkscape:window-maximized="1"
   inkscape:current-layer="Layer_x0020_1" />&#10; <defs
   id="defs1">&#10;  <style
   type="text/css"
   id="style1">&#10;   <![CDATA[
    .fil0 {fill:#FEFEFE}
   ]]>&#10;  </style>&#10; </defs>&#10; <g
   id="Layer_x0020_1"
   inkscape:label="Layer 1">&#10;  <metadata
   id="CorelCorpID_0Corel-Layer" />&#10;  <g
   id="_2133268401936"
   transform="matrix(0.79153064,0,0,0.79153064,675.51328,158.02208)">&#10;   <path
   class="fil0"
   d="M 925.3,1141.29 H 822.21 c -1.24,0 -8,-2.1 -10.66,-3.89 -7.22,-4.88 -6.32,-8.28 -6.32,-14.91 0,-5.83 10.52,-12.73 15.17,-12.73 2.51,0 0.95,0.41 2.95,0.37 34.11,-0.84 68.94,-0.37 103.17,-0.37 1.22,0 4.75,1.4 5.95,1.92 3.27,1.42 5.78,3.82 7.64,6.93 0.06,0.11 0.16,0.26 0.23,0.37 1.73,2.93 2.34,9.43 0.32,13.41 -2.99,5.85 -13.81,8.9 -15.36,8.9 z m -665.85,-56.4 c 0,-8.07 -0.56,-19.46 6.24,-24.08 5.08,-3.44 5.17,-2.6 13.17,-2.6 4.87,0 10.31,6.93 10.31,12.13 v 39.42 h 41.84 c 4.96,0 11.53,6.22 11.53,11.52 0,3.48 0.33,6.3 -0.96,9.35 l -0.62,1.21 c -0.06,0.11 -0.16,0.26 -0.24,0.37 -4.08,5.8 -10.03,6.06 -17.59,6.05 -8.79,0 -23.55,-0.91 -31.6,-0.06 -3.28,0.35 -2.44,1.73 -2.38,5.5 l 0.02,23.67 c 0,4.94 0.65,11.05 -0.96,14.81 l -3.42,4.46 c -1.54,1.58 -2.3,2.8 -4.75,3.13 -4.84,0.66 -10.73,0.62 -13.47,-1.01 -3.31,-1.98 -5.79,-5.16 -6.38,-9.39 -1.15,-8.24 0.33,-37.14 -0.12,-39.3 -0.56,-2.71 -2.66,-1.86 -6.06,-1.82 -6.73,0.09 -33.79,0.97 -38.51,-0.91 -4.49,-1.79 -3.42,-2.46 -5.77,-2.72 -0.37,-3.34 -8.22,-10.98 -0.35,-19.75 2.65,-2.95 6.97,-5.11 10.05,-5.11 h 40.63 c 0,-8.99 -0.61,-15.82 -0.61,-24.87 z m 264.41,-380.22 -12.91,66.54 c -1.16,9.67 -2.6,12.36 -0.11,22.32 1.23,4.95 1.21,7.84 4.01,13.53 l 2.5,4.79 c 1.45,3.2 5.96,7.21 8.55,9.64 2.34,2.2 1.23,-0.71 1.59,2.64 3.07,0.26 0.74,-0.5 2.58,1.07 3.76,3.23 3.08,1.89 7.53,3.99 2.01,0.95 3.17,1.39 5.1,2.18 3.74,1.53 8.7,2.55 12.16,2.99 7.79,0.99 14.33,0.04 21.76,0.09 4.26,0.03 5.81,-0.48 9.62,-1.31 1.72,-0.37 1.96,-0.68 3.21,-0.84 4.58,-0.57 6.4,-1.63 11.21,-2.92 l 4.19,-1.26 c 0.14,-0.08 1.03,-0.69 1.09,-0.72 1.38,-0.78 1.14,-0.5 2.58,-1.07 0.03,0 1.19,-0.48 1.29,-0.53 0.12,-0.07 0.27,-0.15 0.39,-0.21 l 6.18,-3.53 c 0.16,-0.08 0.66,-0.3 0.82,-0.39 l 0.77,-0.45 c 2.14,-1.3 -0.37,-1.24 3.52,-1.33 0.27,-2.53 1,-2.27 5.28,-5.03 2.98,-1.92 7.62,-7.58 10.34,-10.28 l 5.01,-5.89 c 1.74,-2.4 2.41,-5.65 4.4,-8.39 l 1.25,-3.12 c 0.02,-0.13 0.04,-0.31 0.06,-0.43 l 3.57,-13.26 c 0.13,-1.12 -0.03,-0.59 0.25,-1.66 0.68,-2.66 0.76,0.43 0.76,-2.27 0,-2.27 -0.76,0.03 0.81,-6.49 0.37,-1.5 0.55,-1.42 0.79,-3.11 l 4.44,-20.08 c 0.3,-1.38 0.11,-0.01 0.19,-1.19 0.02,-0.32 -0.11,-0.92 -0.01,-1.83 l 9.63,-46.05 c 0.1,-0.31 0.08,0.03 0.44,-1.38 0.04,-0.18 0.34,-1.92 0.37,-2.06 l 7.57,-37.3 c 1.1,-8.36 2.48,-13.61 6.93,-20.36 0.08,-0.11 0.17,-0.26 0.24,-0.37 l 2.47,-3.6 c 0.57,-0.76 3.47,-3.74 4.22,-4.26 l 11.7,-5.9 c 6.65,-2.2 15.31,-1.38 21.88,1.05 3.4,1.26 5.12,2.85 7.79,4.95 1.36,1.07 0.97,0.43 2.07,2.18 l 1.56,2.68 c 5.05,6.8 4.24,11.19 4.24,19.41 0,2.89 -0.33,0.73 -0.73,3.18 l -0.62,3.31 c -0.32,1.17 -0.64,2.84 -0.95,3.98 -1.1,4.03 -0.13,0.65 -0.13,3.48 l -5.62,24.79 c -0.01,0.11 -0.01,0.28 -0.03,0.39 -0.01,0.11 -0.01,0.29 -0.03,0.39 -0.26,1.96 -0.98,2.23 -0.98,3.54 0,2.22 0.69,0.33 -0.27,3.93 l -1.1,4.41 c -0.19,0.79 -0.1,0.29 -0.23,1.26 -0.01,0.1 -0.02,0.29 -0.03,0.39 l -1.83,7.17 c -0.58,2.69 -0.41,4.23 -1.1,6.78 -0.46,1.69 -0.42,1.07 -0.82,2.84 l -0.84,4.09 c -0.01,0.11 -0.01,0.3 -0.01,0.41 l -7.98,39.68 c -0.31,1.95 0.31,-0.88 -0.15,1.58 l -5.66,24.49 c 0,2.37 0.7,1.29 -1.06,7.42 l -2.31,10.25 c -0.26,1.54 0.06,0.32 -0.15,1.58 l -2.52,12.3 c -0.32,2.8 -0.44,1.83 -0.82,3.84 -0.48,2.47 0.14,-0.43 -0.16,1.57 l -4.08,18.03 c -0.13,0.84 -0.39,2.81 -0.76,4.14 l -1.82,9.71 c -1.16,4.66 -2.12,9.15 -4.47,14.28 -1.22,2.68 -2.39,6.06 -4.3,8.42 -1.96,2.4 -0.72,0.16 -2.8,2.06 -1.48,1.36 0.12,-0.22 -1.04,1.4 -0.09,0.14 -0.37,0.59 -0.48,0.72 -1.33,1.57 -4.45,4.02 -6.62,4.57 l -2.67,1.29 c -1.5,0.93 -2.77,0.68 -3.7,0.89 -1.64,0.37 2,-0.67 -0.71,0.23 -5.41,1.8 -12.51,2.86 -17.85,0.45 l -3.4,-1.13 c -2.82,-0.63 -4.68,-1.71 -6.56,-3.42 l -3.98,-4.52 c -1.25,-1.74 -4.23,-6.03 -4.76,-7.98 -2.92,0.25 -4.66,1.35 -6.36,2.74 -4.57,3.71 -10.56,5.9 -16.08,8.17 -6.77,2.78 -14.27,5.53 -21.45,6.88 -2.45,0.46 0.4,-0.15 -1.57,0.15 -1.25,0.19 0.24,-0.09 -1.66,0.4 l -5.83,1.34 c -2.87,0.19 0.38,-0.27 -1.63,-0.27 -2.54,0 -2.89,1.21 -6.06,1.21 h -24.86 c -2.87,0 -3.88,-1.21 -5.45,-1.21 -2.64,0 0.3,1.14 -3.63,0.03 -1.72,-0.48 0.54,-0.05 -1.93,-0.53 -3.5,-0.67 -7.52,-0.89 -10.92,-2.44 -1.56,-0.7 -0.82,-0.56 -1.55,-0.87 -1.68,-0.68 -2.18,-0.26 -4.01,-0.85 -1.95,-0.64 -2.7,-1.83 -4.34,-2.41 l -7.82,-3.61 c -0.86,-0.52 0.13,0.04 -0.78,-0.43 -4.15,-2.17 -7.84,-4.31 -11.45,-7.35 -0.1,-0.08 -0.24,-0.2 -0.33,-0.28 -0.1,-0.07 -0.24,-0.2 -0.33,-0.28 -0.1,-0.08 -0.23,-0.2 -0.32,-0.28 -0.55,-0.48 -0.72,-0.64 -1.26,-1.17 -1.22,-1.18 -1.54,-1.67 -2.89,-2.57 -1.33,2.78 -1.73,5.89 -2.42,9.1 l -1.08,5.78 c -0.39,1.92 -0.44,-0.29 -0.6,3.1 l -5.7,26.81 c -1.18,5.11 -0.51,2.48 -0.51,4.93 l -5.41,23.63 c -0.04,0.17 -0.14,0.61 -0.16,0.78 l -3.87,19.57 c -0.32,1.5 -0.45,1.43 -0.87,3.33 l -1.06,5.67 c -0.23,0.89 -0.25,0.73 -0.49,1.25 -0.08,0.17 -0.35,0.64 -0.43,0.8 -2.66,5.29 -1.01,6.18 -6.24,11.94 l -1.99,2.26 c -0.08,0.08 -0.22,0.21 -0.3,0.3 -0.09,0.09 -0.22,0.21 -0.31,0.29 l -0.63,0.59 c -3.14,2.9 -5.41,4.73 -10.13,6.25 -6.8,2.18 -12.2,4.41 -19.44,2.58 -1.48,-0.37 -2.61,-0.4 -4.03,-0.83 -2.39,-0.73 -5.09,-2.03 -6.81,-3.49 -2.44,-2.06 -5.05,-3.45 -6.36,-6.37 -0.06,-0.14 -0.12,-0.31 -0.18,-0.43 l -3.33,-6.39 c -1.74,-3.53 -1.1,-10.84 -0.72,-15.02 0.27,-2.95 1.82,-6.59 2.29,-9.57 0.1,-0.59 0.31,-1.23 0.41,-1.65 l 4.06,-20.23 c 0.43,-1.95 0.61,-1.87 1.09,-3.77 l 2.35,-12.16 c 0.2,-0.96 0.2,-1.15 0.44,-2.06 0.04,-0.12 0.54,-1.74 0.54,-1.79 0.42,-2.53 -0.51,-0.81 0.31,-3.95 0.35,-1.3 0.08,0.09 0.54,-1.92 l 4.08,-19.03 c 0.7,-2.64 0.26,-1.9 0.26,-3.93 l 11.91,-54.75 c 0.13,-0.68 0.14,-1.04 0.25,-1.61 l 6.29,-29.43 c 0.2,-0.93 0.09,-0.76 0.16,-1.22 l 2.3,-12.16 c 0.21,-0.72 0.85,-3.04 0.9,-3.27 l 1.24,-6.72 c 0.81,-3.68 1.54,-5.8 1.65,-9.34 0.04,-0.7 -0.08,-0.2 0.1,-1.22 l 6.72,-31.26 c 0.73,-2.7 0.76,-4.7 1.41,-7.72 0.3,-1.4 1.45,-4.42 1.77,-6.39 l 8.84,-42.47 c 1.1,-4.02 0.12,-0.65 0.12,-3.48 l 5.95,-27.95 c 0.36,-1.16 0.22,0.05 0.73,-2.35 0.21,-0.98 0.3,-1.92 0.43,-2.61 0.84,-4.36 2.13,-7.74 4.74,-11.02 0.09,-0.1 0.2,-0.24 0.28,-0.33 4.8,-6.16 5.77,-8.03 14.06,-12.03 l 6.13,-1.8 c 2.19,-0.55 -0.17,-0.73 2.86,-0.73 4.4,0 10.3,-0.88 14.35,0.81 7.04,2.91 11.05,4.66 15.61,11.07 1.46,2.07 0.19,-0.03 0.91,2.13 2.49,7.53 2.48,1.86 2.48,14.5 l -4.23,22.45 c -0.43,2.3 -0.68,2.17 -1.05,3.8 l -6.57,33.45 c -0.74,2.11 -0.88,0.01 -0.88,1.54 z m -290.48,526.29 c 5.64,-1.3 81.42,-1.34 83.69,-0.23 5.08,1.03 120.09,0.31 128.55,0.31 128.24,0 258.55,1.07 386.29,-0.01 12.88,-1.51 28.22,-1.03 41.85,-1 7.07,0 14.15,0.04 21.22,0.05 5.62,0.02 16.66,-1.35 19.88,1.57 3.93,-1.68 107.25,0 125.66,0 16.06,0 46.94,1.15 62.58,-1.1 20.81,-3 37.62,-16.02 43.17,-36.28 2.39,-8.78 2.6,-18.46 0.13,-27.26 -1.29,-4.58 -3.02,-7.47 -5,-11.37 -4,-7.88 -23.96,-40.52 -29.58,-49.86 -2.11,-3.51 -3.86,-6.4 -5.92,-9.85 L 975.38,875.94 c -8,-13.61 -15.44,-26.75 -23.51,-40.17 -4.01,-6.67 -8.13,-12.89 -12.05,-19.48 L 868.87,696.22 c -11.54,-20.19 -24.21,-39.83 -35.77,-60.05 -3.79,-6.61 -7.71,-13.03 -11.76,-19.77 L 726.51,456.53 c -2.07,-3.43 -3.8,-6.33 -5.92,-9.85 -2.19,-3.65 -3.84,-6.66 -6.06,-10.31 L 643.44,316.45 c -4.05,-6.72 -7.48,-13.31 -11.53,-20.01 l -12.24,-19.9 c -6.12,-9.13 -3.63,-15.77 -3.64,-26.68 V 90.37 c 0,-21.68 1,-41.58 0,-62.47 -0.71,-15.02 -12,-21.89 -25.46,-21.83 l -15.78,-0.6 c -16.74,-0.91 -42.29,-0.19 -42.47,21.2 -0.18,21.15 -0.58,41.42 -0.58,63.09 0,5.12 1.81,174.97 0.29,181.63 -0.66,2.92 -1.64,3.01 -3.08,5.4 l -23.69,39.99 c -7.46,13.67 -15.68,26.62 -23.66,40 l -47.53,79.82 c -7.44,12.44 -16.08,28.09 -23.73,39.94 L 220.45,796.06 c -2.05,3.45 -3.91,6.34 -5.99,9.77 l -18.19,29.71 c -28,46.4 -54.99,93.21 -82.77,139.79 L 6.57,1155.23 c -8.4,16.11 -9.2,34.06 0.26,50.09 8,13.56 22.47,23.4 38.65,25.03 9.67,0.97 20.68,0.91 30.26,0.12 8.93,-0.74 22.52,-0.31 31.41,0.66 13.82,1.51 82.28,0.45 102.6,0.54 3.52,0.01 4.43,-0.47 7.25,-0.63 5.32,-0.28 10.98,0.21 16.38,-0.08 z"
   id="path1" />&#10;   <path
   class="fil0"
   d="m 4876.73,1380.22 -33.99,-0.58 -27.63,-2.7 c -24.56,-3.4 -46.71,-7.8 -69.45,-15.44 -17.5,-5.88 -35.03,-12.45 -51.48,-20.68 l -15.72,-8.53 c -10.1,-5.82 -19.83,-12.54 -29.39,-19.14 l -30.83,-23.74 c -5.24,-4.91 -10.99,-9.12 -16.08,-14.25 -4.96,-5.01 -10.37,-9.45 -14.88,-14.83 l -8.73,-9.46 c -17.47,-20.77 -35,-43.6 -47.5,-67.73 -0.71,-1.37 -1.17,-2.5 -2.06,-3.99 -16.98,-28.37 -32.54,-75.03 -38.81,-106.74 -5.28,-26.69 -9.45,-56.72 -9.45,-88.18 0,-8.89 0.58,-15.76 0.59,-24.27 0,-4.13 0.66,-6.72 0.62,-11.51 -0.13,-18.19 3.66,-38.19 6.58,-55.88 2.28,-13.77 10.43,-45.58 15.69,-58.91 3.65,-9.26 6.44,-18.23 10.31,-27.28 1.36,-3.17 2.68,-5.7 3.99,-8.75 2.59,-6.08 5.21,-10.94 8.11,-16.75 l 8.87,-15.98 c 8.84,-15.81 19.23,-30.58 30.4,-44.8 10.09,-12.84 31.17,-35.71 42.04,-45.29 l 10,-8.8 c 7.55,-7.07 16.05,-13.12 24.46,-19.21 5,-3.62 9.81,-6.7 14.81,-10.05 35.31,-23.6 82.8,-42.6 124.37,-50.88 7.02,-1.41 13.8,-2.57 21.08,-3.78 14.86,-2.49 30.41,-4.24 45.59,-4.14 7.99,0.04 15.68,-1.23 24.24,-1.23 5.44,0 9.36,1.21 15.16,1.21 2.89,0 3.45,-0.54 5.46,-0.54 4.7,0 11.6,1.3 16.42,1.7 34.21,2.86 67.52,10.02 99.15,22.14 6.15,2.37 11.37,4.44 17.41,6.85 11.54,4.62 22.88,9.26 33.44,15.68 12.52,7.59 25.47,14.69 37.16,23.48 9.41,7.06 19.03,13.42 27.93,21.19 l 6.34,5.78 c 2.34,2.16 4.17,3.17 6.35,5.78 10.09,12.08 23.58,24.03 35.16,38.22 48.2,59.02 81.12,142.9 86.88,218.15 l 1.25,23.01 c -0.03,7.96 1.01,17.6 0.16,23.82 l -0.77,23.48 c -1.11,21.42 -3.03,44.26 -8.6,64.77 l -11.34,37.19 c -11.32,36.93 -13.75,41.9 -32.2,77.55 -4.07,7.86 -9.32,15.5 -14.08,22.92 -7.7,12.01 -15.84,24.51 -25.79,34.84 l -24.58,24.54 c -1.45,1.44 -1.59,1.79 -2.79,3.28 -5.78,7.25 -20.75,20.41 -28.12,26.46 -4.7,3.86 -9.44,6.92 -14.32,10.54 -11.7,8.68 -24.5,16.12 -36.96,23.67 -26.73,16.19 -67.81,30.14 -97.15,37.49 -12.12,3.02 -27.13,6.51 -41.22,7.29 -15.17,0.84 -30.18,3.01 -46.1,3.01 z m 14.96,135.84 h -2.38 l -50.78,-0.62 c -10.03,0.02 -20.72,-1.42 -30.39,-2.36 -14.77,-1.42 -28.84,-3.77 -43,-6.12 -18.12,-3 -36.1,-7.1 -53.49,-11.99 -27.8,-7.82 -67.62,-22.84 -93.88,-36.51 -8.72,-4.54 -17.59,-10.31 -26.46,-14.77 -2.14,-1.08 -3.32,-1.71 -5.1,-2.79 l -15.25,-9.61 c -11.27,-7.55 -22.27,-15.59 -32.49,-24.52 -11.6,-10.16 -24.08,-19.66 -36.05,-29.44 -13.97,-11.42 -11.89,-11.37 -20.63,-19.99 -1.72,-1.69 -2.1,-2.61 -3.63,-4.27 l -23.33,-25.78 c -13.84,-16.52 -42.46,-56.21 -53.33,-77.65 l -5.86,-10.52 c -2.12,-3.78 -3.41,-7.37 -5.26,-11.12 -7.23,-14.68 -14.36,-29.15 -20.28,-44.61 -6.15,-16.05 -11.54,-32.52 -16.24,-49.24 -12.29,-43.66 -20.49,-97.06 -20.49,-142.03 V 518.51 c 0,-6.45 1.87,-10.04 1.83,-16.98 -0.04,-6.07 -0.01,-12.13 -0.01,-18.2 V 80.06 c 0,-13.19 0.99,-22.59 4.02,-32.97 5.33,-18.18 17.68,-31.22 33.98,-39.39 15.08,-7.56 26,-7.69 42.65,-7.69 22.1,0 45.27,13.7 56.37,32.17 5.82,9.68 9.61,18.9 11.83,32.44 1.14,6.9 1.62,14.57 0.85,21.42 -0.71,6.31 -0.52,14.06 -0.52,21.31 v 531.22 c 1.84,-1.23 7,-8.2 8.84,-10.56 16.02,-20.5 9.54,-12.36 26.78,-29.61 l 50.67,-49.4 41.05,-29.29 c 3.71,-2.46 7.7,-4.67 11.72,-7.08 4.09,-2.45 8.02,-4.54 11.96,-6.83 l 12.31,-6.5 c 8.74,-4.37 16.2,-8.81 25.44,-12.76 17.92,-7.67 34.82,-15.53 54.01,-21.19 9.88,-2.9 19.08,-6.1 29.02,-8.58 43.24,-10.8 90.06,-15.89 135.11,-15.89 12.31,0 14.87,0.73 24.87,1.21 13.77,0.65 32.06,1.94 44.76,3.74 18.11,2.58 36.63,6.3 53.71,10.57 l 25.23,6.92 c 46.52,12.75 90.63,37.1 131.11,62.34 l 14.34,9.92 c 1.64,1.22 2.94,1.92 4.69,3.19 6.41,4.67 12.29,8.92 18.53,13.6 9.48,7.12 21.65,17.59 30.4,26 8.84,8.51 25.36,23.79 32.24,32.65 8.2,10.57 17.09,20.58 25.12,31.28 6.88,9.18 13.79,18.26 19.98,27.92 7.29,11.38 11.71,20.05 18.05,30.47 6.09,10.03 11.62,20.53 16.84,31.07 1.02,2.06 1.96,3.76 2.82,5.67 l 16.73,39.06 c 3.01,7.79 5.48,16.35 8.06,24.07 5.46,16.37 9.8,32.88 13.9,50.38 6.07,25.83 8.02,44.05 10.94,69.73 4.65,41.09 2.39,39.39 2.54,78.13 0.02,3.72 -0.55,4.69 -0.64,7.85 l -1.28,23.58 c -1.12,10.08 -1.61,20.42 -3.2,30.76 -5.22,33.93 -10.05,50.61 -18.89,81.78 -7.91,27.85 -20.66,58.12 -33.61,84.03 -1.75,3.49 -3.55,7.56 -5.49,10.89 l -12.21,21.74 c -2.2,3.64 -4.45,6.98 -6.53,10.46 -4.15,6.92 -8.88,13.16 -13.63,19.72 l -20.87,29.45 c -5.82,7.88 -12.4,15.66 -19.04,22.81 l -15.61,17.74 -58.74,51.03 c -3.24,2.42 -6.13,4.42 -9.45,6.92 -9.82,7.38 -19.68,14.42 -30.25,20.69 l -43.27,23.44 c -3.82,1.9 -7.5,3.41 -11.12,5.25 -21.91,11.09 -60.81,24.73 -86.47,31.18 -23.62,5.94 -44.94,9.94 -70.25,13.43 -10.17,1.41 -19.81,1.47 -30.31,3.04 z"
   id="path2" />&#10;   <path
   class="fil0"
   d="m 3501.97,1380.22 c -40.84,0 -87.87,-7.74 -125.76,-20.98 l -25.86,-9.93 c -13.56,-6 -18.84,-9.78 -31.31,-16.6 -2.72,-1.48 -5.07,-2.79 -7.74,-4.38 -2.7,-1.6 -4.65,-2.62 -7.43,-4.1 -18.11,-9.66 -20.64,-11.7 -36.49,-23.53 -4.84,-3.61 -8.98,-6.74 -13.62,-10.65 -2.29,-1.91 -4.03,-3.3 -6.31,-5.21 -6.7,-5.61 -20.78,-19.58 -27.32,-26.65 l -8.64,-9.55 c -1.71,-2.26 -3.38,-4.59 -5.31,-6.82 -10.57,-12.07 -21.9,-27.15 -30.28,-41.29 -9.35,-15.79 -17,-30.92 -24.42,-47.73 -1.2,-2.71 -2.12,-5.25 -3.31,-8.21 -19.02,-47.56 -30.67,-97.43 -30.67,-149.45 0,-33.03 0.62,-60.04 5.98,-92.26 3.33,-20.01 7.67,-40.62 13.95,-59.42 7.63,-22.81 10.65,-27.96 19.48,-47.83 l 4.06,-8.08 c 8.68,-16.12 14.72,-26.55 25.18,-42.13 11.14,-16.59 13.96,-19.38 26.14,-34.49 6.77,-8.39 22.12,-25.56 29.79,-31.47 1.67,-1.3 1.76,-1.42 3.21,-2.84 7.23,-7.03 15.48,-12.75 23.47,-18.99 23.26,-18.17 34.71,-25.52 59.77,-37.86 2.75,-1.36 5.36,-2.36 8.29,-3.84 25.92,-13.09 52.49,-22.92 81.31,-29.05 25.41,-5.41 69.73,-13.04 100.71,-9.44 5.03,0.58 5.68,-0.12 10.42,-0.12 25.1,0 61.12,7.44 84.42,13.22 18.49,4.6 52.67,16.93 70.1,27.53 15.02,9.14 31.12,16.99 45.43,27.34 9.46,6.84 19.4,13.25 28.2,20.92 7.61,6.63 26.69,24.07 31.32,29.93 l 22.51,26.61 c 49.93,66.72 78.11,138.18 84.87,221.37 0.63,7.77 0.02,15.74 0.67,23.58 1.5,18.07 -1.21,53.13 -3.17,69.06 -3.41,27.74 -9.47,54.46 -18,80.24 -1.99,6 -4.21,11.8 -6.5,17.76 -11.37,29.69 -25.03,54.5 -42.22,80.28 -15.57,23.35 -23.3,32.95 -44.3,53.94 l -24.86,23.65 c -13.96,13.88 -57.28,39.78 -74.24,48.25 l -16.97,7.89 c -22.09,9.86 -50.94,18.55 -74.44,23.2 l -31.11,5.28 c -11.31,1.49 -22.76,2.21 -34.77,2.23 -4.09,0.01 -6.73,0.64 -11.5,0.63 -4.24,-0.02 -8.49,-0.01 -12.73,-0.01 z m 14.46,135.84 h -7 c -52.65,-0.06 -92.01,-1.05 -144.27,-14.19 -18.09,-4.54 -34.34,-9.38 -51.11,-14.99 -16.34,-5.46 -31.11,-12.75 -47.03,-19.07 -22.49,-8.94 -44,-22.17 -63.66,-35.8 -12.58,-8.71 -46.07,-34.12 -55.39,-43.44 -11.05,-11.07 -21.68,-21.69 -32.74,-32.76 -16.41,-16.41 -15.13,-15.79 -30.89,-35.21 -10.53,-12.97 -18.68,-24.55 -27.73,-38.37 -2.37,-3.61 -4.15,-7.12 -6.42,-10.55 -11.16,-16.87 -20.79,-34.91 -29.1,-53.38 -3.39,-7.54 -6.29,-15.3 -9.36,-23.38 -12.05,-31.67 -16.03,-42.79 -24.12,-75.34 -7.69,-30.95 -9.33,-53.36 -13.4,-85.44 -1.51,-11.83 -1.7,-19.19 -1.64,-31.11 0.03,-5.56 -0.61,-9.67 -0.61,-15.77 v -32.74 c 0,-10.44 1.52,-20.02 2.37,-30.38 0.85,-10.23 2.03,-19.75 3.14,-29.61 3.08,-27.4 9.78,-54.71 17.28,-80.96 l 8.13,-24.61 c 7.61,-19.16 15.25,-38.37 24.46,-56.8 l 8.26,-16.6 c 1.01,-1.74 1.63,-3.31 2.66,-5.23 3.86,-7.2 36.67,-56.43 45.88,-68.72 3.44,-4.59 6.92,-9.74 11.07,-13.8 l 7.82,-8.55 c 5.47,-6.85 12.91,-15.62 19.5,-21.14 5.68,-4.75 10.28,-11.35 16.1,-16.04 6.33,-5.09 11.28,-10.69 17.33,-15.41 12.27,-9.59 24.6,-19.21 37.34,-28.16 1.63,-1.14 3.22,-2.48 4.86,-3.63 8.02,-5.67 16.83,-10.09 25.1,-15.52 30.57,-20.11 64.93,-35.12 99.29,-47.47 40.26,-14.48 64.67,-18.39 105.78,-25.21 4.6,-0.76 9.74,-1.91 14.23,-2.14 l 22.84,-2.03 c 7.11,-1.08 15.94,-0.32 22.88,-1.37 6.99,-1.06 40.17,-0.47 47.39,0.6 5.02,0.76 10.21,0.59 15.39,0.99 19.4,1.52 40.1,2.81 58.98,7.12 9.06,2.07 17.72,4.03 26.55,6.2 9.07,2.22 17.83,3.99 27.05,6.29 22.04,5.49 50.94,17.69 71.63,26.62 29.1,12.57 68.88,36.71 93.81,54.76 3.42,2.47 6.26,4.53 9.45,6.92 10.87,8.14 21.73,16.72 31.68,25.93 15.55,14.41 31.4,29.12 44.64,45.72 2.27,2.85 5.43,5.58 7.73,8.64 l 21.03,28.09 c 2.44,3.24 4.75,6.09 7,9.38 l 12.97,20.38 c 12.77,19.03 21.44,38.59 31.61,58.74 12.25,24.26 21.23,51.18 28.98,77.76 12.02,41.24 20.54,96.94 20.54,143.79 v 466.94 c 0,12.13 -3.21,21.59 -7.27,29.72 -14.58,29.24 -47.22,45.26 -79.81,40.39 -14.68,-2.19 -29.65,-7.18 -40.42,-17.2 -2.53,-2.35 -3.68,-2.71 -5.91,-5.61 -12.67,-16.47 -17.61,-27.22 -17.58,-50.93 0,-3.78 0.13,-7.8 0.02,-11.55 -0.11,-3.59 -0.64,-6.39 -0.63,-10.89 l 0.61,-90.97 c -2.95,1.98 -6.29,6.76 -8.49,9.71 l -16.02,20.37 c -7.43,9.49 -28.32,26.58 -35.53,36.03 -5.17,6.77 -12.32,11.66 -19.06,16.72 -17.62,13.2 -44.95,35.15 -62.39,45.55 l -47.19,24.96 c -18.87,7.65 -46.26,18.66 -65.15,24 -19.37,5.48 -39.16,9.48 -59.43,12.74 -8.56,1.38 -39.46,5.86 -48.16,5.81 -6.76,-0.03 -10.61,1.12 -15.87,1.2 z"
   id="path3" />&#10;   <path
   class="fil0"
   d="m 5679.62,725.89 c 0,35.96 3.62,64.73 15.94,95.66 3.41,8.58 7.92,16 11.96,23.82 l 13.34,21.82 c 3.54,4.99 7.25,10.66 11.37,15.32 l 21.52,23.35 14.5,12.18 c 14.94,12.04 6.52,6.25 25.38,18.89 l 16.25,10.43 c 14.31,9.61 25.45,14.3 40.55,21.91 36.51,18.4 79.82,31.53 119.3,41.4 9.71,2.42 18.8,4.31 28.63,6.54 29.34,6.7 60.9,10.94 90.15,16.59 34.71,6.7 53.78,11.88 85.95,20.78 14.13,3.9 38.83,13.59 51.89,19.06 8.1,3.39 16.97,7.62 23.95,11.83 10.05,6.06 23.29,13.34 31.96,21.4 3.19,2.97 5.98,5.99 9.09,9.11 16.35,16.35 21.1,19.7 31.88,39.07 9.08,16.3 13.75,34.87 13.75,59.62 0,41.32 -15.41,65.47 -35.87,90.87 -11.44,14.22 -36.59,33.21 -53.2,40.8 -1.54,0.7 -2.8,1.35 -4.52,2.15 -8.34,3.91 -20.19,8.07 -28.83,11.19 -31.6,11.42 -56.64,13.86 -89.39,17.95 -19.48,2.43 -68.47,3.91 -84.82,2.07 -2.3,-0.25 -4.87,-0.03 -7.21,-0.06 -7.33,-0.09 -25.97,-2.41 -33.35,-3.04 l -25.4,-3.71 c -30.65,-6.11 -61.97,-12.71 -89.8,-26.63 -6.46,-3.23 -12.94,-6.46 -19.4,-9.7 -12.79,-6.39 -25.98,-12.07 -37.26,-20.96 -4.97,-3.93 -41,-32.85 -43.83,-36.21 l -10.14,-11.7 c -10.37,-13.36 -30.63,-25.73 -47.64,-25.73 -22.54,0 -34.26,2.06 -52.15,13.95 -1.76,1.16 -3.58,2.38 -5.28,3.82 -1.89,1.61 -3.49,2.8 -5.19,4.51 -33.72,33.88 -32.82,69.97 1.22,104.01 l 23.65,23.03 c 8.4,7.5 17.91,14.24 26.92,20.99 14.46,10.85 29.87,21.53 46.2,29.61 l 12.33,6.47 c 12.74,6.36 25.34,13.18 38.58,18.42 33.81,13.36 64.36,22.67 100.49,31.7 38.29,9.58 93.39,17.44 132.86,17.59 h 1.49 l 51.85,-0.58 c 8.56,-0.1 32.9,-2.38 40.26,-3.4 19.36,-2.69 37.95,-4.88 56.49,-9.01 l 34.94,-8.72 c 33.41,-9.09 49.56,-17.49 78.7,-30.45 22.62,-10.05 47.13,-27.44 66.72,-42.43 l 17.75,-15.01 c 21.24,-21.35 42.89,-47.22 56.63,-74.35 1.37,-2.68 2.68,-4.32 4.05,-6.87 l 12.91,-30.75 c 7.31,-22.11 12.2,-46.54 12.96,-70.49 v -12.89 c -0.13,-2.87 -0.63,-4.27 -0.61,-7.95 0.04,-6.27 -0.15,-11.56 -0.63,-17.56 -1.99,-24.92 -7.24,-49.31 -17.34,-71.8 l -5.66,-12.53 c -7.05,-15.84 -16.74,-30.76 -27.3,-44.27 -9.17,-11.71 -19.41,-22.03 -29.86,-32.6 -1.86,-1.88 -3.07,-2.49 -4.87,-4.23 l -9.41,-8.18 c -13.03,-11.4 -38.21,-27.34 -53.52,-36.22 -11.32,-6.57 -24.18,-11.55 -36.35,-17.02 -12.66,-5.68 -25.56,-10.32 -38.73,-15.23 -70.09,-26.19 -144.91,-35.13 -217.76,-50.29 -14.25,-2.96 -30.18,-6.38 -43.63,-10.34 -27.05,-7.96 -54.3,-15.75 -80.11,-27.23 -3.44,-1.53 -8.39,-3.96 -11.64,-5.94 -18.24,-11.03 -36.84,-22.72 -49.79,-39.96 -16.45,-21.91 -28.33,-48.85 -28.33,-79.01 0,-18.73 2.52,-36.09 9.49,-50.54 5.7,-11.81 11.35,-23.43 20.67,-32.7 6.63,-6.59 13.16,-13.12 20.52,-18.9 2.67,-2.1 4.92,-3.95 7.54,-5.8 38.46,-27 77.12,-39.64 127.25,-44.98 12.64,-1.35 25.18,-1.65 37.7,-2.32 l 12.73,-0.61 c 5.15,-0.02 7.71,0.63 12.73,0.61 16.25,-0.08 32.59,1.33 48.7,4.05 36.96,6.25 67.58,15.63 101.5,31.32 l 17.3,9.38 c 16.01,9.6 32.57,20.38 45.82,33.62 9.05,9.06 17.89,17.33 26.99,26.37 1.44,1.44 1.59,1.8 2.78,3.29 6.46,8.1 17.34,15.69 26.78,19.91 5.93,2.66 12.89,5.02 20.44,6.25 24.56,4 43.81,3.39 63.32,-12.22 7.38,-5.9 13.26,-12.31 17.91,-20.9 14.13,-26.1 1.82,-58.2 -15.15,-79.05 l -16.64,-19.75 c -1.8,-1.81 -2.38,-3.02 -4.24,-4.86 -1.67,-1.66 -2.89,-2.88 -4.55,-4.54 l -14.56,-13.33 c -1.95,-1.96 -2.65,-2.62 -4.78,-4.32 l -9.47,-8.73 c -1.69,-1.5 -3.42,-2.45 -5.14,-3.96 -1.86,-1.64 -2.99,-2.48 -5.06,-4.03 l -44.03,-29.34 c -1.93,-1.18 -3.74,-2.22 -5.76,-3.34 l -18.18,-9.72 c -4.4,-2.11 -8.09,-3.57 -12.69,-5.51 -30.91,-12.98 -46.73,-19.96 -81.63,-28.72 -9.8,-2.46 -19.63,-4.53 -29.95,-6.45 -8.71,-1.62 -38.06,-6.78 -48.14,-7.04 l -26.72,-1.17 c -3.24,-0.1 -4.55,-0.67 -8.47,-0.63 -3.88,0.04 -5.45,-0.44 -8.49,-0.6 -9.22,-0.5 -18.67,0 -27.89,0 -39.8,0 -74.89,4.14 -111.64,11.47 -22.07,4.41 -43.49,10.14 -64.05,18.41 -19.66,7.9 -24.57,9.6 -43.03,18.83 -22.3,11.15 -43.11,24.34 -62.47,40.01 l -11.46,9.17 c -3.33,2.58 -7.36,7.08 -10.42,10.19 -10.27,10.37 -19.37,22.16 -27.68,34.18 -2.96,4.27 -5.71,8.02 -8.22,12.4 -3.87,6.78 -7.61,13.11 -10.59,20.34 -1.11,2.67 -2.3,4.56 -3.3,7.01 -8.38,20.5 -15.29,42.01 -18.31,64.16 -1.63,11.93 -3,24.58 -3,38.23 z"
   id="path4" />&#10;   <path
   class="fil0"
   d="m 2479.56,72.78 v 1103.08 c 0,28.65 3.35,60.43 8.14,87.07 3.37,18.82 9.68,43.4 16.2,60.81 l 8.32,20.79 c 5.54,13.56 16.36,30.71 23.93,43.38 12.68,21.28 10.47,16.87 23.71,33.9 3.58,4.61 14.5,15.31 18.7,19.51 l 26.28,21.62 c 6.17,4.26 10.76,7.64 17.64,11.47 23.98,13.34 41.74,20.63 69.78,26.64 25.33,5.44 80.71,9.26 109.68,2.04 11.88,-2.96 25.03,-9.71 33.73,-18.42 4.1,-4.11 1.88,-1.02 7.61,-7.55 2.46,-2.83 4.65,-5.81 6.4,-9.37 7.78,-15.79 8.89,-21.5 8.89,-40.23 0,-15.82 -4.63,-28.74 -12.37,-40.39 -35.62,-53.65 -94.23,-9.58 -145.72,-40.45 -10.1,-6.05 -20.13,-12.86 -27.22,-21.9 -11.12,-14.14 -16.77,-21.98 -24.1,-37.75 -10.96,-23.53 -15.38,-41.86 -18.96,-67.76 l -2.07,-22.79 c -1.2,-22.15 -0.61,-51.39 -0.61,-73.99 V 83.09 c 0,-22.14 -1.68,-35.19 -11.64,-50.21 -4.28,-6.46 -12.2,-14.96 -17.98,-19.62 -16.48,-13.31 -30.87,-13.25 -50.43,-13.25 -4.71,0 -11.22,1.39 -15.09,2.49 -10.31,2.95 -17.86,7.05 -25.71,13.71 -9.76,8.26 -15.92,13.37 -21.41,27.11 -3.23,8.07 -5.7,18.48 -5.7,29.46 z"
   id="path5" />&#10;   <path
   class="fil0"
   d="m 1683.32,695.58 c 0,7.91 0.36,16.42 -0.69,24.15 -0.11,0.75 -0.36,2.79 -0.59,3.68 -0.54,2.1 -1.17,2.3 -1.36,3.99 -0.3,2.88 -1.95,5.13 -2.67,7.73 -0.71,2.5 0.21,0.8 -1.06,3.19 l -2.53,5.96 c -0.53,1.23 -0.84,1.79 -1.47,2.77 -0.62,0.94 -0.22,0.28 -0.74,1.08 l -3.39,5.1 c -1.09,2.34 -2.37,5.76 -5.5,6.02 -0.25,2.98 -2.61,4.79 -4.39,6.54 -1.33,1.3 -1.65,1.38 -2.99,2.46 l -2.99,3.07 c -3.83,3.45 -8.81,6.22 -13.47,8.36 l -4.07,1.94 c -0.08,0.04 -0.25,0.11 -0.34,0.15 -1.2,0.53 -0.38,0.05 -1.18,0.54 -10.06,6.12 -26.58,8.83 -38.46,7.84 -9.51,-0.79 -6.11,0.03 -14.59,0.03 -5.51,0 -26.94,0.97 -30.92,-0.61 l -6.7,-3.61 c -1.1,-0.84 -1.87,-1.47 -2.84,-2.62 -3.21,-3.84 -6.23,-9.54 -6.23,-14.99 V 637.36 c 0,-4.96 2.89,-12.15 6.51,-15.33 0.53,-0.46 0.79,-0.69 1.28,-1.13 l 4.83,-3.66 c 2.55,-1.02 5.45,-2.32 9.21,-2.32 15.67,0 40.29,-1.13 54.82,0.98 5.73,0.83 5.67,0.56 11.03,2.31 l 5.21,1.46 c 0.08,0.03 1.45,0.67 1.65,0.77 l 9.58,4.37 c 1.32,0.65 1.63,0.86 2.64,1.61 l 1.41,1.01 c 0.23,0.12 1.46,0.57 1.74,0.68 3.09,1.24 5.84,3.54 8.39,5.57 1.52,1.2 1.57,0.61 1.77,3.07 2.99,0.25 9.79,7.78 11.3,10.53 1.43,2.61 0.58,1.22 2.4,3.07 l 7.96,13.87 c 0.06,0.12 0.15,0.27 0.22,0.38 2.25,3.92 3.49,9.58 5.19,14.27 l 1.24,5.94 c 0.62,3.24 0.79,7.23 0.79,10.77 z m -58.59,-152.82 c -1.49,0.75 -55.65,0.68 -56.92,0 -9.57,0 -16.96,-0.61 -26.39,-0.61 -9.09,0 -18.19,0 -27.29,0 -9.48,0 -16.81,0.61 -26.07,0.61 h -53.97 c -9.43,0 -17,-0.61 -26.68,-0.61 -9.1,0 -18.2,0.01 -27.29,0 l -26.12,1.16 c -15.33,2.11 -23.79,15.03 -16.14,31.4 1.36,2.9 3.25,5.68 5.02,8.31 l 10.9,16.39 c 1.97,3.21 3.41,5.38 5.37,8.59 l 73.37,115.83 c 14.79,22.52 32.32,51.12 47.17,74.72 1.91,3.03 3.59,5.61 5.36,8.58 3.29,5.49 6.97,10.78 10.32,16.37 1.59,2.65 3.33,5.4 5.18,8.15 2.02,3.01 3.44,5.48 5.46,8.5 11.23,16.81 25.1,39.96 36.51,58.09 1.87,2.97 3.56,5.48 5.38,8.57 l 10.5,16.78 c 1.78,2.68 9.72,14.77 10.31,16.98 h -225.59 c -10.67,-0.06 -18.54,2.89 -23.06,12.1 -2.81,5.73 -4.7,35.05 7.28,41.28 7.39,3.86 21.73,3.62 30.95,3.62 69.74,0 139.47,0 209.21,0 v 472.4 c 0,30.03 -1.94,39.42 28.5,39.42 13.79,0 19.48,0.47 25.49,-7.87 4.94,-6.84 3.62,-18.69 3.62,-30.34 V 997.57 h 208 c 29.24,0 41.25,1.15 41.24,-28.5 0,-10.11 0.42,-19.16 -9.19,-25.38 -6.88,-4.45 -20.38,-3.12 -31.44,-3.12 H 1624.5 l 10.19,-16.49 c 3.6,-5.71 6.95,-11.03 10.55,-16.74 12.81,-20.36 29.09,-47.12 41.73,-66.22 3.63,-5.5 6.82,-11.04 10.56,-16.74 15.97,-24.37 33.67,-54.13 49.35,-79.19 1.02,-1.63 1.86,-2.68 2.9,-4.39 l 20.99,-32.98 c 7.14,-11.35 13.85,-22.24 20.99,-33.58 l 62.78,-99.75 c 5.05,-8.98 4.56,-22.11 -6.12,-28.84 -8.53,-5.37 -37.76,-4.14 -49.89,-4.13 -4.69,0.01 -7.8,0.99 -12.7,1.26 l -26.7,0.59 c -5.18,0 -7.92,-0.65 -12.72,-0.62 -17.57,0.1 -43.82,0.53 -60.67,0.03 -3.06,-0.1 -3.36,-0.61 -6.63,-0.65 -18.85,-0.23 -35.85,0.63 -54.38,0.63 z"
   id="path6" />&#10;   <path
   class="fil0"
   d="m 1567.81,542.76 c 1.27,0.68 55.43,0.75 56.92,0 1.16,-4.76 0.38,-132.89 0.38,-141.29 V 48.53 c 0,-11 1.41,-25.33 -2.39,-32.78 -1.6,-3.14 -5.72,-6.92 -9.38,-8.2 -5.74,-2.02 -27.84,-2.07 -33.21,-0.37 -15.89,5.02 -12.63,25.51 -12.63,40.13 v 459.67 c 0,8.14 -1,29.17 0.31,35.78 z"
   id="path7" />&#10;   <path
   class="fil0"
   d="m 233.38,1230.96 c 0,7.31 -0.61,12.31 -0.61,19.49 v 221.34 c 0,12.31 -1.3,24.96 7.79,32.24 3.88,3.12 7.7,5.42 14.64,5.38 6.87,-0.05 13.75,-0.01 20.63,-0.02 14.55,-0.01 24.21,2.43 33.46,-5.35 2.85,-2.4 6.12,-8.42 6.93,-13.08 1.83,-10.59 0.85,-157.53 0.85,-180.48 0,-7.3 -0.62,-12.36 -0.61,-19.4 l -0.01,-50.34 c -0.03,-4.33 0.62,-5.9 0.62,-10.01 -2.27,-1.11 -78.05,-1.07 -83.69,0.23 z"
   id="path8" />&#10;   <path
   class="fil0"
   d="m 831.91,1231.03 0.61,160.71 c 0,26.53 0.81,54.31 0.02,80.68 -0.22,7.21 -1.35,9.53 -0.07,18.83 3.1,22.51 27.53,18.16 41.29,18.14 13.44,-0.01 37,4.45 41.07,-17.74 0.68,-3.66 0.77,-5.33 0.78,-9.55 0.01,-4.23 -0.59,-6.08 -0.64,-9.68 -0.34,-27.36 0.63,-52.98 0.63,-80.07 0,-45.73 0.59,-95.17 0.02,-140.71 -0.04,-3.62 -0.65,-5.42 -0.63,-9.68 0.02,-3.42 0.16,-6.91 -0.13,-10.31 -3.22,-2.92 -14.26,-1.55 -19.88,-1.57 -7.07,-0.01 -14.15,-0.05 -21.22,-0.05 -13.63,-0.03 -28.97,-0.51 -41.85,1 z"
   id="path9" />&#10;   <path
   class="fil0"
   d="m 1734.27,366.89 v 37 c -11.06,0 -37.34,-1.31 -46,2.52 -8.91,3.93 -9.41,18.07 -3.69,23.52 1.88,1.8 6.03,4.28 9.66,4.28 h 40.03 v 37.6 c 0,8.39 6.05,14.55 13.34,14.55 h 4.24 c 6.37,0 12.73,-5.57 12.73,-12.12 v -40.03 h 40.64 c 3.74,0 7.97,-2.63 9.87,-4.68 7.81,-8.41 5,-25.64 -15.93,-25.64 h -34.58 v -38.2 c 0,-6.4 -6.93,-13.35 -13.33,-13.35 h -3.64 c -6.98,0 -13.34,7.7 -13.34,14.55 z"
   id="path10" />&#10;   <path
   class="fil0"
   d="m 1580.84,748.34 17.6,0.01 10.18,-1.95 c 1.24,-0.58 0.77,-0.51 2.14,-0.9 l 3.46,-1.39 c 0.1,-0.07 0.24,-0.18 0.35,-0.26 0.1,-0.07 0.25,-0.17 0.36,-0.24 0.08,-0.05 1.75,-0.93 1.98,-1.06 2.38,-1.22 2.34,-1.44 4.56,-1.49 0.24,-2.23 -0.7,-0.64 2.91,-3.77 0.43,-0.38 1.16,-1.02 1.58,-1.44 l 4.9,-5.42 4.22,-9.12 c 1.43,-3.76 2.36,-6.07 2.88,-10.45 0.62,-5.13 0.87,-15.76 -0.53,-20.33 -0.4,-1.33 -1.29,-2.89 -1.72,-4.34 -2.15,-7.32 0.56,-3.5 -3.76,-8.97 -1.1,-1.4 -1.64,-2.58 -2.76,-3.91 -1.02,-1.21 -2.17,-2.24 -3.33,-3.34 -1.62,-1.56 -2.36,-1.61 -2.57,-4.11 -3,-0.25 -0.79,0.17 -2.31,-0.72 -2.53,-1.47 0.65,-0.68 -6.27,-3.43 -8.54,-3.4 -9.88,-4.41 -21.13,-4.35 -6.95,0.04 -8.75,-0.52 -12.13,-0.6 -0.07,3.01 -0.61,4 -0.61,10.92 v 35.17 c 0,16.68 -1.43,28.25 0,45.49 z"
   id="path11" />&#10;   <path
   class="fil0"
   d="m 1680.9,1083.08 c 0,8.45 0.27,11.69 8.49,15.77 4.78,2.39 9.81,3.63 16.98,3.63 h 87.32 c 5.72,0 12.88,-1.83 16.8,-3.82 11.94,-6.07 10.57,-19.05 2.11,-25.39 -3.31,-2.47 -8.97,-4.75 -14.66,-4.75 h -95.82 c -9.07,0 -21.22,6 -21.22,14.56 z"
   id="path12" />&#10;  </g>&#10; </g>&#10;</svg>
