<?xml version="1.0" encoding="UTF-8"?>
<!DOCTYPE svg PUBLIC "-//W3C//DTD SVG 1.1//EN" "http://www.w3.org/Graphics/SVG/1.1/DTD/svg11.dtd">
<!-- Creator: CorelDRAW -->
<svg xmlns="http://www.w3.org/2000/svg" xml:space="preserve" width="2.64399in" height="3.28074in" version="1.1" style="shape-rendering:geometricPrecision; text-rendering:geometricPrecision; image-rendering:optimizeQuality; fill-rule:evenodd; clip-rule:evenodd"
viewBox="0 0 5548.01 6884.14"
 xmlns:xlink="http://www.w3.org/1999/xlink"
 xmlns:xodm="http://www.corel.com/coreldraw/odm/2003">
 <defs>
  <style type="text/css">
   <![CDATA[
    .fil0 {fill:white}
   ]]>
  </style>
 </defs>
 <g id="Layer_x0020_1">
  <metadata id="CorelCorpID_0Corel-Layer"/>
  <ellipse class="fil0" cx="2773.98" cy="805.68" rx="2773.86" ry="805.68"/>
  <path class="fil0" d="M-0 1269.01c801.73,846.36 4839.74,859.51 5548.01,0l0 1382.61c-886.42,943.54 -4546.87,997.45 -5548.01,0 0,-460.86 0,-921.75 0,-1382.61z"/>
  <path class="fil0" d="M-0 3010.6c801.73,846.35 4839.74,859.51 5548.01,0l0 1382.61c-886.42,943.55 -4546.87,997.46 -5548.01,0 0,-460.85 0,-921.75 0,-1382.61z"/>
  <path class="fil0" d="M-0 4773.51c801.73,846.35 4839.74,859.51 5548.01,0l0 1382.61c-886.42,943.55 -4546.87,997.46 -5548.01,0 0,-460.85 0,-921.75 0,-1382.61z"/>
 </g>
</svg>
