<?xml version="1.0" encoding="UTF-8"?>
<!DOCTYPE svg PUBLIC "-//W3C//DTD SVG 1.1//EN" "http://www.w3.org/Graphics/SVG/1.1/DTD/svg11.dtd">
<!-- Creator: CorelDRAW -->
<svg xmlns="http://www.w3.org/2000/svg" xml:space="preserve" width="3.58405in" height="3.16685in" version="1.1" style="shape-rendering:geometricPrecision; text-rendering:geometricPrecision; image-rendering:optimizeQuality; fill-rule:evenodd; clip-rule:evenodd"
viewBox="0 0 1564.97 1382.8"
 xmlns:xlink="http://www.w3.org/1999/xlink"
 xmlns:xodm="http://www.corel.com/coreldraw/odm/2003">
 <defs>
  <style type="text/css">
   <![CDATA[
    .fil0 {fill:white}
   ]]>
  </style>
 </defs>
 <g id="Layer_x0020_1">
  <metadata id="CorelCorpID_0Corel-Layer"/>
  <g id="_2682135986192">
   <path class="fil0" d="M160.75 0l1019.9 0c88.41,0 160.75,72.34 160.75,160.75l0 141.47 223.57 0 0 173.89 -223.57 0 0 124.2 223.57 0 0 173.89 -223.57 0 0 132.49 223.57 0 0 173.89 -223.57 0 0 141.47c0,88.41 -72.34,160.75 -160.75,160.75l-1019.9 0c-88.41,0 -160.75,-72.34 -160.75,-160.75l0 -1061.3c0,-88.41 72.34,-160.75 160.75,-160.75zm120.49 182.17l778.93 0c57.5,0 104.53,47.04 104.53,104.53l0 809.41c0,57.5 -47.04,104.53 -104.53,104.53l-778.93 0c-57.49,0 -104.53,-47.04 -104.53,-104.53l0 -809.41c0,-57.5 47.04,-104.53 104.53,-104.53z"/>
   <polygon class="fil0" points="286.57,297.37 634.07,297.37 634.07,747.24 286.57,747.24 "/>
   <polygon class="fil0" points="286.57,835.68 634.07,835.68 634.07,1085.43 286.57,1085.43 "/>
   <polygon class="fil0" points="710.65,632.53 1058.15,632.53 1058.15,1085.43 710.65,1085.43 "/>
   <polygon class="fil0" points="710.65,297.37 1058.15,297.37 1058.15,544.09 710.65,544.09 "/>
  </g>
 </g>
</svg>
